Coordinates
version=1
nRows=13
nColumns=36
inDegrees=yes

Units are S.I. units (second, meters, Newtons, ...)
If the header above contains a line with 'inDegrees', this indicates whether rotational values are in degrees (yes) or radians (no).

endheader
time	pelvis_tilt	pelvis_list	pelvis_rotation	pelvis_tx	pelvis_ty	pelvis_tz	hip_flexion_r	hip_adduction_r	hip_rotation_r	knee_angle_r	knee_angle_r_beta	ankle_angle_r	subtalar_angle_r	mtp_angle_r	hip_flexion_l	hip_adduction_l	hip_rotation_l	knee_angle_l	knee_angle_l_beta	ankle_angle_l	subtalar_angle_l	mtp_angle_l	lumbar_extension	lumbar_bending	lumbar_rotation	arm_flex_r	arm_add_r	arm_rot_r	elbow_flex_r	pro_sup_r	arm_flex_l	arm_add_l	arm_rot_l	elbow_flex_l	pro_sup_l
      0.00000000	     -1.85215083	     -0.34195786	      0.23878984	     -0.92544009	      1.25254815	     -0.07643560	      4.84511978	     -0.95464928	      5.23381157	     10.26668405	      0.17918744	      2.94242764	    -10.80953947	     -5.85959830	      3.28122091	     -2.06126958	      1.84003568	      6.50886028	      0.11360104	      8.33455208	     -2.07972758	     -5.85959830	     -6.26798669	      2.22567760	     -3.58414808	      3.30235992	    -12.68106848	     17.95339792	     28.90374688	     73.69661735	     -5.34162317	    -12.09550098	      8.47819708	     37.86725084	     73.58439759
      0.00416670	     -4.05653837	     -0.47437281	      0.43565941	     -0.92365935	      1.24988998	     -0.07813754	      7.02813034	     -0.82945251	      6.05172741	     10.10550418	      0.17637432	      6.04288535	     -8.71288968	     -6.62277229	      5.90547792	     -1.73148500	      3.25802753	      6.82228253	      0.11907129	      7.37376523	     -1.98604602	     -6.62277229	     -2.63167362	      2.58596176	     -3.86591832	      2.50846893	    -12.68580950	     17.30412213	     28.88273403	     76.54391921	     -6.29217539	    -11.27099993	      6.92030864	     37.98207413	     77.53982772
      0.00833330	     -4.97485296	     -0.05773831	      0.21103501	     -0.92217727	      1.24806587	     -0.07648120	      7.47496962	     -1.25581440	      5.76325409	      9.10764931	      0.15895847	      6.26280661	     -8.39444675	     -6.75975254	      6.76630385	     -1.42460714	      3.11086617	      6.66949809	      0.11640470	      6.65655878	     -1.96132017	     -6.75975254	     -1.21687962	      1.96094573	     -3.72139993	      1.89692323	    -12.54977457	     16.52766846	     29.57250502	     75.40935047	     -6.82308219	    -11.55387825	      6.98591554	     38.12956712	     76.69216170
      0.01250000	     -4.94271216	      0.22055671	      0.15461808	     -0.92254945	      1.24912909	     -0.07569753	      7.24135260	     -1.50334604	      5.77711355	      8.72475808	      0.15227575	      6.62078958	     -7.98702988	     -6.90861383	      6.50226738	     -1.15246989	      3.72908982	      6.25676718	      0.10920119	      6.17008225	     -2.65056163	     -6.90861383	     -1.17209058	      1.56689151	     -3.52007188	      1.47388231	    -12.38610744	     15.24128805	     30.16903581	     73.58479509	     -6.96575353	    -11.69607574	      6.77619915	     38.35122544	     75.19316801
      0.01666670	     -4.98379415	      0.33593841	      0.13132179	     -0.92155502	      1.24961990	     -0.07521046	      7.08910091	     -1.58068739	      5.76051186	      8.37483746	      0.14616849	      6.56250823	     -7.89374453	     -7.12349530	      6.33268679	     -1.05278493	      4.15049936	      5.84898052	      0.10208397	      5.99444728	     -2.93376081	     -7.12349530	     -1.11951570	      1.46027407	     -2.86746824	      0.27052371	    -11.83019765	     10.30378018	     31.50839215	     78.20982894	     -6.82332256	    -11.47311707	      5.64080370	     38.34347352	     81.11266870
      0.02083330	     -4.80767982	      0.38321893	      0.23391229	     -0.92031839	      1.24997564	     -0.07520995	      6.64357282	     -1.58306810	      5.64243288	      8.07777871	      0.14098383	      6.45497119	     -7.86372239	     -7.18782939	      6.03775972	     -1.01046820	      4.57102441	      5.70410640	      0.09955544	      5.86490758	     -3.36275126	     -7.18782939	     -1.18315705	      1.39412306	     -2.88516008	      0.03330515	    -11.64159782	      9.65401331	     31.78649685	     76.33742949	     -7.03214450	    -11.30187105	      4.89123875	     38.57889584	     78.92921234
      0.02500000	     -4.66737261	      0.45372316	      0.27323759	     -0.92016611	      1.25381250	     -0.07558034	      6.27871077	     -1.66430583	      5.59775680	      7.74248147	      0.13513179	      6.23134918	     -7.85717551	     -7.24003900	      5.74484803	     -0.92656459	      4.74236154	      5.46486281	      0.09537985	      5.66605987	     -3.45834250	     -7.24003900	     -1.27636211	      1.31953292	     -2.83733592	     -0.12404605	    -11.45802994	      9.07763077	     31.88835407	     75.12708484	     -7.11196858	    -11.11932272	      4.21270650	     38.75860132	     77.45252080
      0.02916670	     -4.48627763	      0.48089428	      0.29777625	     -0.92045482	      1.25265636	     -0.07551505	      5.93784450	     -1.71052826	      5.52255832	      7.49506340	      0.13081353	      6.03099062	     -7.86813668	     -7.26528631	      5.49742345	     -0.87976672	      4.92778554	      5.36466230	      0.09363102	      5.58481767	     -3.53390049	     -7.26528631	     -1.43366098	      1.27651141	     -2.83893159	     -0.07331329	    -11.30397905	      8.73149294	     31.77097274	     75.21140288	     -7.09878691	    -11.01362635	      3.61614320	     38.87676987	     77.40534212
      0.03333330	     -4.36398076	      0.48202127	      0.39802534	     -0.91977431	      1.25297345	     -0.07577508	      5.63496036	     -1.72725728	      5.51333468	      7.20592968	      0.12576720	      5.63143349	     -8.18168665	     -7.28090342	      5.30560946	     -0.84477903	      5.29344588	      5.24792136	      0.09159351	      5.35594855	     -3.89715405	     -7.28090342	     -1.61118321	      1.24720538	     -2.88960099	     -0.20596780	    -11.20885679	      8.39094590	     32.04585799	     74.60622299	     -7.12150988	    -10.95527931	      3.10389761	     39.28778134	     76.67944387
      0.03750000	     -4.20464214	      0.47648414	      0.41179010	     -0.91863607	      1.25124901	     -0.07505763	      5.27551581	     -1.71739974	      5.59761367	      6.92202185	      0.12081207	      5.40450611	     -8.23154254	     -7.30964648	      5.02617587	     -0.87560165	      5.29250567	      5.11476511	      0.08926949	      5.36801337	     -3.66880410	     -7.30964648	     -1.73766366	      1.20180548	     -2.89142415	     -0.20147790	    -11.07610519	      8.21237664	     31.97483023	     74.41958847	     -7.07403898	    -10.91779925	      2.71898756	     39.37297181	     76.38324760
      0.04166670	     -4.08024714	      0.47523772	      0.48450535	     -0.91996345	      1.25247472	     -0.07450019	      4.97432381	     -1.69285987	      5.60885960	      6.59277628	      0.11506565	      5.22888359	     -8.24155391	     -7.33098042	      4.78418706	     -0.89948747	      5.56968930	      4.94642897	      0.08633147	      5.10154107	     -4.06536326	     -7.33098042	     -1.91910288	      1.15604259	     -2.98228027	     -0.30284415	    -11.01013678	      8.08306728	     32.34814056	     73.63623110	     -7.11833174	    -10.98555110	      2.53265421	     39.86940663	     75.49716565
      0.04583330	     -4.05720979	      0.46700406	      0.54523358	     -0.91940250	      1.25306738	     -0.07512391	      4.81366923	     -1.68951599	      5.60776511	      6.30075374	      0.10996890	      5.11292847	     -8.09545588	     -7.39000792	      4.68309476	     -0.92355611	      5.66637332	      4.82431114	      0.08420011	      4.94807456	     -4.07362489	     -7.39000792	     -1.92256878	      1.13748704	     -3.21709306	     -0.22200359	    -10.83662313	      7.22410174	     32.24686506	     78.86092674	     -7.28475740	    -10.80273544	      0.97467022	     40.10592839	     81.39380254
      0.05000000	     -3.99932523	      0.45687367	      0.57618679	     -0.91979693	      1.25279418	     -0.07515424	      4.67213073	     -1.67018129	      5.64720433	      6.07617468	      0.10604925	      5.01397486	     -8.10889536	     -7.44479817	      4.56481040	     -0.94384009	      5.73157127	      4.68007832	      0.08168278	      4.77853136	     -4.24914475	     -7.44479817	     -1.99766609	      1.12179574	     -3.22926951	     -0.25159155	    -10.87402829	      7.40665754	     32.37703668	     78.77940917	     -7.15824198	    -10.91811875	      1.23852779	     40.25571170	     81.26793112
